<svg xmlns="http://www.w3.org/2000/svg" viewBox="0 0 373.6 102.7" enable-background="new 0 0 373.6 102.7"><g fill="#134b90"><path d="M0,81.6V20.3h10.9c24,0,31.9,9.3,31.9,30.3c0,21.7-8.4,31-32,31H0z M11.9,75c16.1,0,22.5-6.3,22.5-24.4
			c0-16.3-5.3-23.7-22-23.7H8.2V75H11.9z"/><path d="m83.8 68.2c-1.6 11.8-10.2 14.4-17 14.4-14.2 0-19.2-9.4-19.2-22 0-13.8 7.1-22.8 20-22.8 12 0 17.9 8.8 16.2 23.9h-28.2c0 8.3 2.8 14.9 11.4 14.9 5.5 0 9.4-2.6 10.4-9.3l6.4.9m-7-11.7c.3-7.8-2.6-13-9.9-13-7.7 0-11 6.2-11.3 13h21.2"/><path d="m100.5 81.6l-14.8-42.8h8l10.9 34.4 10.8-34.4h7.9l-14.9 42.8h-7.9"/><path d="m164 60.9l7.8.7c-1.1 14.9-9.5 21-21.5 21-15.5 0-23.5-10.3-23.5-31.1 0-21.8 10.5-32.2 25.5-32.2 12.7 0 20.2 8.7 19.8 22.1l-7.8.7c0-12-5.5-16-12.8-16-8.8 0-15.9 7-15.9 25.2 0 16.6 4.8 24.6 15.2 24.6 8-.1 12.5-5.8 13.2-15"/><path d="m213.3 68.2c-1.6 11.8-10.2 14.4-17 14.4-14.2 0-19.2-9.4-19.2-22 0-13.8 7.1-22.8 20-22.8 12 0 17.9 8.8 16.2 23.9h-28.3c0 8.3 2.8 14.9 11.4 14.9 5.5 0 9.4-2.6 10.4-9.3l6.5.9m-7-11.7c.3-7.8-2.6-13-9.9-13-7.7 0-11 6.2-11.3 13h21.2"/><path d="m256 81.6h-7.7v-25c0-9.1-3-12.7-9.1-12.7-8.9 0-11.2 6.7-11.2 13.4v24.2h-7.8v-42.7h7.2l.3 6.4h.1c1.8-3.3 5.6-7.4 13.2-7.4 9.5 0 14.9 5.6 14.9 18v25.8z"/><path d="m259.8 38.8h5.2v-9.3l7.7-2.4v11.7h10.2v5.8h-10.2v23c0 6.2 1.3 9 6.1 9 2.1 0 3.6-.3 5.3-.8l.8 5.6c-1.6.6-4.3 1.2-7.7 1.2-9.4 0-12.1-5.3-12.1-14.2v-23.8h-5.2v-5.8z"/><path d="m311.2 53.1c.8-7.1-.8-9.1-4.7-9.1-6.8 0-9.3 6.8-9.3 14.4v23.1h-7.8v-42.7h7.2l.4 6.2h.1c2-4.1 5.6-7.2 11.5-7.2 7.1 0 11.3 4.4 9.7 14.9l-7.1.4"/><path d="m360.5 81.5c-8.7 1.8-10.8-1.2-11.5-5.8-2.4 4.3-7.2 6.9-13.7 6.9-9.4 0-13.4-5.8-13.4-11.8 0-11.7 11.6-13 26.4-13.8v-2c0-9.1-4-11.5-9.3-11.5-9.2 0-8.9 4.8-8.2 10.6l-6.8.6c-2-9.5 2.3-16.8 15.5-16.8 13.7 0 16.3 8.7 16.3 20v15.5c0 3.2 1.1 4.1 4.7 3.3v4.8m-12.3-19.2c-15.7.3-18.5 3.2-18.5 7.9 0 4.3 2.7 6.8 8 6.8 5.7 0 10.5-4.4 10.5-10.7v-4"/><path d="m373.6 81.6h-7.8v-61.3h7.8v61.3"/></g></svg>